<?xml version="1.0" encoding="utf-8"?>
<!-- Uploaded to: SVG Repo, www.svgrepo.com, Generator: SVG Repo Mixer Tools -->
<svg fill="#000000" width="800px" height="800px" viewBox="-13 0 32 32" version="1.1" xmlns="http://www.w3.org/2000/svg">
<title>arrows-v</title>
<path d="M5.92 22.32c-0.32-0.32-0.84-0.32-1.2 0l-0.8 0.8v-14.16l0.8 0.8c0.16 0.16 0.36 0.24 0.6 0.24 0.2 0 0.44-0.080 0.6-0.24 0.32-0.32 0.32-0.84 0-1.2l-2.24-2.24c-0.6-0.72-1.2-0.040-1.2-0.040l-2.24 2.24c-0.32 0.32-0.32 0.84 0 1.2 0.32 0.32 0.84 0.32 1.2 0l0.8-0.8v14.16l-0.8-0.8c-0.32-0.32-0.84-0.32-1.2 0-0.32 0.32-0.32 0.84 0 1.2l2.24 2.24c0.4 0.4 0.68 0.4 1.12-0.040l2.24-2.24c0.44-0.28 0.44-0.8 0.080-1.12z"></path>
</svg>