<?xml version="1.0" encoding="utf-8"?>
<!-- Uploaded to: SVG Repo, www.svgrepo.com, Generator: SVG Repo Mixer Tools -->
<svg fill="#000000" width="800px" height="800px" viewBox="-9 0 32 32" version="1.1" xmlns="http://www.w3.org/2000/svg">
<title>arrows-oblique</title>
<path d="M14.48 22.48v-3.2c0-0.48-0.36-0.84-0.84-0.84v0c-0.48 0-0.84 0.36-0.84 0.84v1.12l-10-10h1.16c0.48 0 0.84-0.36 0.84-0.84s-0.36-0.84-0.84-0.84h-3.16c-0.52 0-0.8 0.32-0.8 0.84v3.16c0 0.48 0.36 0.84 0.84 0.84v0c0.48 0 0.84-0.36 0.84-0.84v-1.12l10 10h-1.12c-0.48 0-0.84 0.36-0.84 0.84s0.36 0.84 0.84 0.84h3.16c0.56 0 0.76-0.24 0.76-0.8z"></path>
</svg>