<?xml version="1.0" encoding="utf-8"?>
<!-- Uploaded to: SVG Repo, www.svgrepo.com, Generator: SVG Repo Mixer Tools -->
<svg fill="#000000" width="800px" height="800px" viewBox="-6 0 32 32" version="1.1" xmlns="http://www.w3.org/2000/svg">
<title>arrows-h</title>
<path d="M19.68 15.4v0l-2.24-2.2c-0.32-0.32-0.84-0.32-1.2 0-0.32 0.32-0.32 0.84 0 1.2l0.8 0.8h-14.16l0.8-0.8c0.32-0.32 0.32-0.84 0-1.2-0.32-0.32-0.84-0.32-1.2 0l-2.24 2.24c-0.32 0.32-0.32 0.84 0 1.16v0l2.24 2.2c0.16 0.16 0.36 0.24 0.6 0.24 0.2 0 0.44-0.080 0.6-0.24 0.32-0.32 0.32-0.84 0-1.2l-0.8-0.8h14.16l-0.8 0.8c-0.32 0.32-0.32 0.84 0 1.2 0.16 0.16 0.36 0.24 0.6 0.24s0.44-0.080 0.6-0.24l2.24-2.24c0.32-0.32 0.32-0.88 0-1.16z"></path>
</svg>